<svg xmlns="http://www.w3.org/2000/svg" xmlns:xlink="http://www.w3.org/1999/xlink" width="97.042" height="120.381" viewBox="0 0 97.042 120.381"><defs><linearGradient id="a" x1="-0.126" y1="0.865" x2="1.54" y2="0.113" gradientUnits="objectBoundingBox"><stop offset="0" stop-color="#e74579"/><stop offset="0.245" stop-color="#ef5731"/><stop offset="0.764" stop-color="#f98313"/><stop offset="1" stop-color="#ffc620"/></linearGradient><linearGradient id="b" x1="1.189" y1="0.734" x2="0.028" y2="0.239" xlink:href="#a"/></defs><g transform="translate(-272.688 -34.343)"><path d="M325.24,96.738c.015,0,1.85.006,1.9.008v1.128c-.068-.006-1.937-.012-1.991-.016s-.1,0-.131,0a.909.909,0,0,0-.892.432,1.667,1.667,0,0,0-.128.746v2.012H322.89V96.839h1.051v.734a2.246,2.246,0,0,1,.445-.574,1.2,1.2,0,0,1,.8-.261Z" fill="#ee4e14"/><path d="M325.541,96.875V95.7h1.091v4.185a.5.5,0,0,0,.064.32.745.745,0,0,0,.4.061h.107c.036,0,.076,0,.11-.006v.826l-.522.018a1.4,1.4,0,0,1-1.064-.272.808.808,0,0,1-.187-.582V96.875Z" fill="#ee4e14"/><path d="M325.2,103.269a4.616,4.616,0,1,1,4.616-4.618A4.623,4.623,0,0,1,325.2,103.269Zm0-8.246a3.628,3.628,0,1,0,3.628,3.628A3.637,3.637,0,0,0,325.2,95.023Z" fill="#ee4e14"/><path d="M333.149,36.543c-.718,8.646-8.5,10.356-19.657,15.158-5.289,2.277-10.449,5.968-12.243,12.325-2.06,7.314.268,11.856,4.1,18.862,1.645,3.017,3.169,7.892.535,12.391-1.457-9.2-8.318-11.242-14.4-11.283-6.064-.041-13.029,1.472-15.781-4.656,1.424,9.572,5.772,15.944,11.433,19.12,7.862,4.42,15.968,4.735,23.051,2.022,6.538-2.5,13.554-9.6,18.3-19.5C333.849,69.771,336.3,51.816,333.149,36.543Z" fill="#b8cb1b"/><path d="M309.812,100.664c7.649-2.938,12.981-13.4,11.44-30.81-1.583-17.908-9.164-28.006-13-35.511,1.921,5.934-1.988,9.467-8.436,16.285-5.482,5.791-7.03,12.076-6.027,18.6.932,6.051,6.052,10.646,10.018,15.4,1.624,1.947,3.655,6.5,2.084,10.65.262-8.687-5.142-12.033-10.591-13.46-5.863-1.534-12.453-.769-14.249-8.864-.559,13.737,5.266,22.1,12.3,26.085C299.066,102.275,304.865,102.568,309.812,100.664Z" fill="url(#a)"/><path d="M293.349,99.04c5.717,3.235,11.516,3.528,16.463,1.624,7.649-2.938,12.981-13.4,11.44-30.81a60.223,60.223,0,0,0-4.961-19.269c-1.037.443-2.254.99-3.387,1.478a19.74,19.74,0,0,0-11.655,12.814c-2.06,7.313.268,11.852,4.1,18.861C307,86.753,308.5,90.8,305.869,95.3c-1.459-9.2-8.3-10.413-14.387-10.456a49.988,49.988,0,0,1-9.333-.907A23.94,23.94,0,0,0,293.349,99.04Z" fill="url(#b)"/><path d="M275.446,111.294q-1.839,0-2.758,13.479v2.76q0,4.294,2.758,5.209l.919-.309-.615-6.738,1.227-12.869v-.307l-1.227-1.225Z"/><path d="M288.772,110.453a3.408,3.408,0,0,1,2.758,1.837v.614l-.92.922-.307-.309q-4.521.384-4.9,1.836,1.989,3.071,8.578,7.967a7.172,7.172,0,0,1,1.223,3.373v.916q0,3.987-6.125,5.209h-.92q-3.675-.771-3.676-3.676v-.613l.92-.92h.306q.3,2.145,3.37,2.146,3.061-.846,3.064-3.062,0-1.073-7.354-6.742-2.758-3.3-2.758-4.9Q282.031,111.832,288.772,110.453Z" fill="#1a1818"/><path d="M307.692,110.605h-3.065a12.7,12.7,0,0,0-9.5,3.678v.92l1.228.918,4.593-1.534h.614l.307,8.274v6.433l-.307.307q-4.366,0-5.207-2.143l.3-1.531h-.3a2.013,2.013,0,0,0-1.228,2.141v.615q0,3.369,4.9,3.982h1.839l-.307,5.208.307,5.207q0,10.42,3.369,11.644h.817a20.08,20.08,0,0,1-.927-6.4,1.751,1.751,0,0,1,.022-.211,7.571,7.571,0,0,1-.045-1.9c-.077-1.082-.136-2.326-.172-3.744V132.357l.918-.914q10.415-5.136,10.418-11.951v-1.836Q316.27,111.524,307.692,110.605Zm-2.453,17.771a89.861,89.861,0,0,0-.918-14.705h1.838q7.045,0,7.047,4.9Q313.206,123.857,305.239,128.376Z" fill="#1a1818"/><path d="M321.248,111.294q-1.842,0-2.758,13.479v2.76q0,4.294,2.758,5.209l.918-.309-.614-6.738,1.229-12.869v-.307l-1.229-1.225Z"/><path d="M339.935,110.605q3.982,0,3.83,2.6t-4.443.461q-8.118,2.679-8.118,7.43l-.306,8.424v.305l.612.919V133.2l-1.225,1.22q-2.757,0-2.756-6.429l.612-6.586c-.612,0-.919-.2-.919-.616v-.609a44.1,44.1,0,0,0,2.45-9.807l.306-.306h.614q.918,0,.918,4.289Q335.8,110.609,339.935,110.605Z" fill="#ee4e14"/><path d="M348.283,89.617h.92q1.528,0,1.533,7.964v2.147h.307l8.578-1.838h3.369q3.677,0,6.74,4.594v.617h-.308a9.062,9.062,0,0,0-5.821-2.455q-13.476,1.38-13.478,3.986-2.76,21.753-2.758,28.494v1.225h.307v-.92h.611v2.143c0,1.433-.611,2.144-1.838,2.144a3.141,3.141,0,0,1-2.144-3.062V131.9q0-7.656,2.759-27.264h-.306l-8.272,1.532h-1.84l-1.224-1.225q0-1.3,11.947-3.988V94.519l-.3-2.758Q347.594,89.616,348.283,89.617Z" fill="#ee4e14"/></g></svg>